{"title":"Io.E.Lei.2015.iTALiAN.BRRip.XviD.BLUWORLD","uid":14218179,"size":1425316664,"categoryP":"video","categoryS":"movies","magnet":"?xt=urn:btih:053012590b7b3553e3105487fadc242ad19d49ef&amp;dn=Io.E.Lei.2015.iTALiAN.BRRip.XviD.BLUWORLD&amp;tr=udp%3A%2F%2Ftracker.leechers-paradise.org%3A6969&amp;tr=udp%3A%2F%2Fzer0day.ch%3A1337&amp;tr=udp%3A%2F%2Fopen.demonii.com%3A1337&amp;tr=udp%3A%2F%2Ftracker.coppersurfer.tk%3A6969&amp;tr=udp%3A%2F%2Fexodus.desync.com%3A6969","seeders":5,"leechers":2,"uploader":"noriegaRJ","files":3,"time":1460011417,"description":"Title: Io e Lei aka Me and Her\r\n\r\nRelease: Io.E.Lei.2015.iTALiAN.BRRip.XviD.BLUWORLD\r\n\r\n\r\nIMDB Link:                                                               \nhttp://www.imdb.com/title/tt4703676/\r\n\r\n\r\nPlot: Marina and Federica have been together for five years now, they share the same apartment, bed, face cream, they laugh, they fight, but even so sometimes they are not sure if they're a couple or not.\r\n\r\n\r\nGeneral\r\nComplete name                            : Io.E.Lei.2015.iTALiAN.BRRip.XviD.BLUWORLD\r\nFormat                                   : AVI\r\nFormat/Info                              : Audio Video Interleave\r\nFile size                                : 1.33 GiB\r\nDuration                                 : 1h 42mn\r\nOverall bit rate                         : 1 862 Kbps\r\nWriting application                      : VirtualDubMod 1.5.4.1 (build 2178/release)\r\nWriting library                          : VirtualDubMod build 2178/release\r\n\r\nVideo\r\nID                                       : 0\r\nFormat                                   : MPEG-4 Visual\r\nFormat profile                           : Advanced   \r\nFormat settings, BVOP                    : No\r\nFormat settings, QPel                    : No\r\nFormat settings, GMC                     : No warppoints\r\nFormat settings, Matrix                  : Custom\r\nCodec ID                                 : XVID\r\nCodec ID/Hint                            : XviD\r\nDuration                                 : 1h 42mn\r\nBit rate                                 : 1 215 Kbps\r\nWidth                                    : 720 pixels\r\nHeight                                   : 304 pixels\r\nDisplay aspect ratio                     : 2.35:1\r\nFrame rate                               : 24.000 fps\r\nColor space                              : YUV\r\nChroma subsampling                       : 4:2:0\r\nBit depth                                : 8 bits\r\nScan type                                : Progressive\r\nCompression mode                         : Lossy\r\nBits/(Pixel*Frame)                       : 0.231\r\nStream size                              : 887 MiB (65%)\r\nWriting library                          : XviD 64\r\n\r\nAudio\r\nID                                       : 1\r\nFormat                                   : AC-3\r\nFormat/Info                              : Audio Coding 3\r\nMode extension                           : CM (complete main)\r\nFormat settings, Endianness              : Big\r\nCodec ID                                 : 2000\r\nDuration                                 : 1h 42mn\r\nBit rate mode                            : Constant\r\nBit rate                                 : 640 Kbps\r\nChannel count                            : 6 channels\r\nChannel positions                        : Front: L C R, Side: L R, LFE\r\nSampling rate                            : 48.0 KHz\r\nBit depth                                : 16 bits\r\nCompression mode                         : Lossy\r\nStream size                              : 467 MiB (34%)\r\nAlignment                                : Split accross interleaves\r\nInterleave, duration                     : 96 ms (2.30 video frames)\r\nInterleave, preload duration             : 96 ms\r\n\r\n\r\n\r\nThanks to those helping me seed. Leechers remember, the community depends on you. If nobody shares, the freebies go away. Remember, the only reason you can download this free movie is because others are generous enough to keep sharing it with you. If nobody shares, everybody loses, so even if its for an extra hour or two after you get it, remember, others want to see it too, and they can't without you.\r\n\r\n\r\nSEE MY OTHERS UPLOADS:                                                                                       \nhttp://thepiratebay.se/user/noriegaRJ\r\n\r\nAND SEE THIS ANOTHERS UPLOADS FROM &quot;HORiZON-ArtSubs&quot;:                                       \nhttp://thepiratebay.se/user/artsubs                                       \nhttp://thepiratebay.se/user/lletaif","torrent":{"xt":"urn:btih:053012590b7b3553e3105487fadc242ad19d49ef","amp;dn":"Io.E.Lei.2015.iTALiAN.BRRip.XviD.BLUWORLD","amp;tr":["udp%3A%2F%2Ftracker.leechers-paradise.org%3A6969","udp%3A%2F%2Fzer0day.ch%3A1337","udp%3A%2F%2Fopen.demonii.com%3A1337","udp%3A%2F%2Ftracker.coppersurfer.tk%3A6969","udp%3A%2F%2Fexodus.desync.com%3A6969"],"infoHash":"053012590b7b3553e3105487fadc242ad19d49ef","infoHashBuffer":{"type":"Buffer","data":[5,48,18,89,11,123,53,83,227,16,84,135,250,220,36,42,209,157,73,239]},"announce":[],"urlList":[]}}